<svg xmlns="http://www.w3.org/2000/svg" width="130" height="52" fill="none"><path fill="#fff" d="m62 6 1-1 2-1 1 1 1 1-1 2-1 1-2-1-1-2Zm5 19h-4V10h4v15ZM69 18l1-6 5-2 4 2v-2h3v18l-3 2a9 9 0 0 1-7 1l-2-2 1-3c1 2 3 2 4 2l3-1v-3l-3 2c-2 0-3-1-5-3l-1-5Zm4 0 1 3 2 1 2-1v-6l-2-2-2 1-1 4ZM89 10v2l4-2 4 1 1 5v9h-4v-9l-1-2-1-1c-2 0-2 1-3 2v10h-4V10h4ZM100 6l1-1 2-1 1 1 1 1-1 2-1 1-2-1-1-2Zm5 19h-4V10h4v15ZM112 7v3h3v3h-3v8l1 1h2v3l-2 1c-3 0-5-2-5-5v-8h-2v-3h2V7h4ZM124 26l-6-2-2-6 1-4a6 6 0 0 1 6-4l5 2 2 5v2h-10l1 2 3 1 3-1 2 2-2 2-3 1Zm-1-13-2 1-1 2h6l-1-2-2-1Z"/><path fill="#00B37E" d="M52 0 39 48l-9-9 7-23-1-1-23 7-9-9L52 0Z" opacity=".5"/><path fill="#00B37E" d="m30 39-3 13L0 25l13-3 17 17Z" opacity=".5"/><path fill="#00B37E" d="m37 16-7 23-17-17 23-7 1 1Z"/><path fill="#fff" d="m68 46-1-1-1-1h-2v-1h-1v-2l1-1h1l1-1 1 1 2 1v1h-1l-1-1-1-1-1 1h-1a1 1 0 0 0 0 1h1v1h1l2 1h1v2a2 2 0 0 1-1 1l-1 1h-3l-1-1-1-2h2v1l1 1a3 3 0 0 0 2 0v-1h1ZM72 36v12h-1V36h1Zm0 7h-1l1-1v-2a3 3 0 0 1 3-1h1l1 1v8h-1v-7h-2a2 2 0 0 0-1 0 3 3 0 0 0-1 2ZM79 44v-2l1-1 1-1 2-1 2 1 1 1v1l1 2-1 1v2a3 3 0 0 1-3 1h-2a4 4 0 0 1-2-3v-1Zm2 0v2l1 1h2l1-1v-5h-1l-1-1a2 2 0 0 0-2 1v3ZM90 41v10h-1V39h1v2Zm6 3-1 1v2l-1 1h-3l-1-1-1-1v-4l1-2h1l1-1 2 1h1v2l1 2Zm-2 0v-3a2 2 0 0 0-2 0h-2v5l1 1h2l1-1v-2Z"/></svg>